<svg id="Out_line" height="512" viewBox="0 0 512 512" width="512" xmlns="http://www.w3.org/2000/svg" data-name="Out line"><path d="m240 256h16v16h-16z"/><path d="m272 256h32v16h-32z"/><path d="m240 448h16v16h-16z"/><path d="m272 448h32v16h-32z"/><path d="m208 288h16v144h-16z"/><path d="m264 288h16v144h-16z"/><path d="m320 288h16v144h-16z"/><path d="m114.34338 205.65674 30.05921 30.0592 31.65954 253.27625a7.99947 7.99947 0 0 0 7.93799 7.00781h176a7.99947 7.99947 0 0 0 7.938-7.00781l32-256a7.99943 7.99943 0 0 0 -7.938-8.99219h-220.68652l162.34326-162.34326a7.99915 7.99915 0 0 0 0-11.31348l-32-32a8 8 0 0 0 -11.31348 0l-42.34326 42.34326-42.34326-42.34326a8 8 0 0 0 -11.31348 0l-80 80a7.99915 7.99915 0 0 0 0 11.31348l42.34327 42.34326-42.34327 42.34326a7.99915 7.99915 0 0 0 0 11.31348zm266.59473 50.34326h-60.938v16h58.938l-22 176h-36.938v16h34.938l-2 16h-161.876l-30-240h221.876zm-188.938-139.31348-12.68651-12.68652 20.68652-20.68652 12.68653 12.68652zm-60.68651-12.68652 68.68652-68.68652 36.68653 36.68652-12.68653 12.68652-18.34326-18.34326a8 8 0 0 0 -11.31348 0l-32 32a7.99915 7.99915 0 0 0 0 11.31348l18.34327 18.34326-12.68653 12.68652zm164.68652-68.686 20.68604 20.686-12.68628 12.68628-10.343-10.343-11.3135 11.31346 10.343 10.343-20.68652 20.68652-10.343-10.343-11.31348 11.31348 10.343 10.343-20.68652 20.68652-10.343-10.343-11.31348 11.31348 10.343 10.343-20.68652 20.68652-10.343-10.343-11.31348 11.31348 10.343 10.343-20.68652 20.68652-10.343-10.343-11.31348 11.31348 10.343 10.343-12.68626 12.68626-20.68603-20.686z"/></svg>