<svg width="20" height="20" viewBox="0 0 20 20" fill="none" xmlns="http://www.w3.org/2000/svg">
<rect width="20" height="19.9959" fill="black" fill-opacity="0"/>
<path d="M11.0547 17.9959V12.9959H9.0547V17.9959C9.0547 18.5263 8.84398 19.035 8.46891 19.4101C8.09384 19.7851 7.58513 19.9959 7.0547 19.9959H4.0547C3.52427 19.9959 3.01556 19.7851 2.64048 19.4101C2.26541 19.035 2.0547 18.5263 2.0547 17.9959V10.4059L1.7547 10.7059C1.66429 10.8099 1.55337 10.894 1.4289 10.9531C1.30442 11.0122 1.16907 11.045 1.03135 11.0493C0.89362 11.0536 0.756486 11.0294 0.628551 10.9782C0.500615 10.9271 0.384638 10.85 0.287896 10.7519C0.191154 10.6537 0.115736 10.5367 0.0663717 10.408C0.0170079 10.2794 -0.00523571 10.1419 0.00103668 10.0043C0.00730907 9.86661 0.0419621 9.73174 0.102821 9.60812C0.163681 9.48449 0.249433 9.37478 0.354698 9.28586L9.3547 0.285857C9.54163 0.10263 9.79294 -8.16238e-08 10.0547 -8.16238e-08C10.3165 -8.16238e-08 10.5678 0.10263 10.7547 0.285857L19.7547 9.28586C19.92 9.47598 20.0074 9.72148 19.9995 9.97328C19.9916 10.2251 19.889 10.4646 19.7121 10.644C19.5352 10.8234 19.2972 10.9294 19.0455 10.9409C18.7939 10.9524 18.5471 10.8684 18.3547 10.7059L18.0547 10.4059V17.9959C18.0547 18.5263 17.844 19.035 17.4689 19.4101C17.0938 19.7851 16.5851 19.9959 16.0547 19.9959H13.0547C12.5243 19.9959 12.0156 19.7851 11.6405 19.4101C11.2654 19.035 11.0547 18.5263 11.0547 17.9959ZM16.0547 17.9959V8.40586L10.0547 2.40586L4.0547 8.40586V17.9959H7.0547V12.9959C7.0547 11.8959 7.9547 10.9959 9.0547 10.9959H11.0547C11.5851 10.9959 12.0938 11.2066 12.4689 11.5816C12.844 11.9567 13.0547 12.4654 13.0547 12.9959V17.9959H16.0547Z"/>
</svg>
